<?xml version="1.0" encoding="utf-8" standalone="no"?>
<!DOCTYPE svg PUBLIC "-//W3C//DTD SVG 1.1//EN"
  "http://www.w3.org/Graphics/SVG/1.1/DTD/svg11.dtd">
<svg xmlns:xlink="http://www.w3.org/1999/xlink" width="777.6pt" height="331.2pt" viewBox="0 0 777.6 331.2" xmlns="http://www.w3.org/2000/svg" version="1.1">
 <metadata>
  <rdf:RDF xmlns:dc="http://purl.org/dc/elements/1.1/" xmlns:cc="http://creativecommons.org/ns#" xmlns:rdf="http://www.w3.org/1999/02/22-rdf-syntax-ns#">
   <cc:Work>
    <dc:type rdf:resource="http://purl.org/dc/dcmitype/StillImage"/>
    
    <dc:format>image/svg+xml</dc:format>
    <dc:creator>
     <cc:Agent>
      <dc:title>Matplotlib v3.11.2, https://matplotlib.org/</dc:title>
     </cc:Agent>
    </dc:creator>
   </cc:Work>
  </rdf:RDF>
 </metadata>
 <defs>
  <style type="text/css">*{stroke-linejoin: round; stroke-linecap: butt}</style>
 </defs>
 <g id="figure_1">
  <g id="patch_1">
   <path d="M 0 331.2 
L 777.6 331.2 
L 777.6 0 
L 0 0 
z
" style="fill: #ffffff"/>
  </g>
  <g id="axes_1">
   <g id="patch_2">
    <path d="M 18.27671 308.216171 
L 369.63553 308.216171 
Q 381.856706 308.216171 381.856706 295.994995 
L 381.856706 59.209704 
Q 381.856706 46.988527 369.63553 46.988527 
L 18.27671 46.988527 
Q 6.055534 46.988527 6.055534 59.209704 
L 6.055534 295.994995 
Q 6.055534 308.216171 18.27671 308.216171 
z
" clip-path="url(#p184c8ea9ea)" style="fill: #f8fafc; stroke: #c7d1dc; stroke-width: 1.6; stroke-linejoin: miter"/>
   </g>
   <g id="patch_3">
    <path d="M 43.100975 211.974408 
L 344.811265 211.974408 
L 344.811265 158.506761 
L 43.100975 158.506761 
z
" clip-path="url(#p184c8ea9ea)" style="fill: #ffffff; stroke: #26384a; stroke-width: 2.1; stroke-linejoin: miter"/>
   </g>
   <g id="patch_4">
    <path d="M 49.975386 205.86382 
L 174.096708 205.86382 
L 174.096708 164.61735 
L 49.975386 164.61735 
z
" clip-path="url(#p184c8ea9ea)" style="fill: #f7dede; stroke-dasharray: 9,5.4; stroke-dashoffset: 0; stroke: #bd3e3e; stroke-width: 1.8; stroke-linejoin: miter"/>
   </g>
   <g id="patch_5">
    <path d="M 214.961267 205.86382 
L 339.082589 205.86382 
L 339.082589 164.61735 
L 214.961267 164.61735 
z
" clip-path="url(#p184c8ea9ea)" style="fill: #f7dede; stroke-dasharray: 9,5.4; stroke-dashoffset: 0; stroke: #bd3e3e; stroke-width: 1.8; stroke-linejoin: miter"/>
   </g>
   <g id="patch_6">
    <path d="M 165.312738 208.15529 
L 222.599502 208.15529 
L 222.599502 162.325879 
L 165.312738 162.325879 
z
" clip-path="url(#p184c8ea9ea)" style="fill: #8fd0c4; stroke: #a66f00; stroke-width: 2.2; stroke-linejoin: miter"/>
   </g>
   <g id="text_1">
    <!-- $d=1$ -->
    <g style="fill: #172435" transform="translate(27.824504 78.305292) scale(0.18 -0.18)">
     <defs>
      <path id="DejaVuSans-Oblique-47" d="M 2675 525 
Q 2444 222 2128 65 
Q 1813 -91 1428 -91 
Q 903 -91 598 267 
Q 294 625 294 1247 
Q 294 1766 478 2236 
Q 663 2706 1013 3078 
Q 1244 3325 1534 3454 
Q 1825 3584 2144 3584 
Q 2481 3584 2739 3421 
Q 2997 3259 3138 2956 
L 3513 4863 
L 4091 4863 
L 3144 0 
L 2566 0 
L 2675 525 
z
M 891 1350 
Q 891 897 1095 644 
Q 1300 391 1663 391 
Q 1931 391 2161 520 
Q 2391 650 2566 903 
Q 2750 1166 2856 1509 
Q 2963 1853 2963 2188 
Q 2963 2622 2758 2865 
Q 2553 3109 2194 3109 
Q 1922 3109 1687 2981 
Q 1453 2853 1288 2613 
Q 1106 2353 998 2009 
Q 891 1666 891 1350 
z
" transform="scale(0.015625)"/>
      <path id="DejaVuSans-20" d="M 678 2906 
L 4684 2906 
L 4684 2381 
L 678 2381 
L 678 2906 
z
M 678 1631 
L 4684 1631 
L 4684 1100 
L 678 1100 
L 678 1631 
z
" transform="scale(0.015625)"/>
      <path id="DejaVuSans-14" d="M 794 531 
L 1825 531 
L 1825 4091 
L 703 3866 
L 703 4441 
L 1819 4666 
L 2450 4666 
L 2450 531 
L 3481 531 
L 3481 0 
L 794 0 
L 794 531 
z
" transform="scale(0.015625)"/>
     </defs>
     <use xlink:href="#DejaVuSans-Oblique-47" transform="translate(0 0.015625)"/>
     <use xlink:href="#DejaVuSans-20" transform="translate(82.958984 0.015625)"/>
     <use xlink:href="#DejaVuSans-14" transform="translate(186.230469 0.015625)"/>
    </g>
   </g>
   <g id="text_2">
    <!-- two open intervals -->
    <g style="fill: #536273" transform="translate(27.824504 103.129556) scale(0.12 -0.12)">
     <defs>
      <path id="DejaVuSans-57" d="M 1172 4494 
L 1172 3500 
L 2356 3500 
L 2356 3053 
L 1172 3053 
L 1172 1153 
Q 1172 725 1289 603 
Q 1406 481 1766 481 
L 2356 481 
L 2356 0 
L 1766 0 
Q 1100 0 847 248 
Q 594 497 594 1153 
L 594 3053 
L 172 3053 
L 172 3500 
L 594 3500 
L 594 4494 
L 1172 4494 
z
" transform="scale(0.015625)"/>
      <path id="DejaVuSans-5a" d="M 269 3500 
L 844 3500 
L 1563 769 
L 2278 3500 
L 2956 3500 
L 3675 769 
L 4391 3500 
L 4966 3500 
L 4050 0 
L 3372 0 
L 2619 2869 
L 1863 0 
L 1184 0 
L 269 3500 
z
" transform="scale(0.015625)"/>
      <path id="DejaVuSans-52" d="M 1959 3097 
Q 1497 3097 1228 2736 
Q 959 2375 959 1747 
Q 959 1119 1226 758 
Q 1494 397 1959 397 
Q 2419 397 2687 759 
Q 2956 1122 2956 1747 
Q 2956 2369 2687 2733 
Q 2419 3097 1959 3097 
z
M 1959 3584 
Q 2709 3584 3137 3096 
Q 3566 2609 3566 1747 
Q 3566 888 3137 398 
Q 2709 -91 1959 -91 
Q 1206 -91 779 398 
Q 353 888 353 1747 
Q 353 2609 779 3096 
Q 1206 3584 1959 3584 
z
" transform="scale(0.015625)"/>
      <path id="DejaVuSans-3" transform="scale(0.015625)"/>
      <path id="DejaVuSans-53" d="M 1159 525 
L 1159 -1331 
L 581 -1331 
L 581 3500 
L 1159 3500 
L 1159 2969 
Q 1341 3281 1617 3432 
Q 1894 3584 2278 3584 
Q 2916 3584 3314 3078 
Q 3713 2572 3713 1747 
Q 3713 922 3314 415 
Q 2916 -91 2278 -91 
Q 1894 -91 1617 61 
Q 1341 213 1159 525 
z
M 3116 1747 
Q 3116 2381 2855 2742 
Q 2594 3103 2138 3103 
Q 1681 3103 1420 2742 
Q 1159 2381 1159 1747 
Q 1159 1113 1420 752 
Q 1681 391 2138 391 
Q 2594 391 2855 752 
Q 3116 1113 3116 1747 
z
" transform="scale(0.015625)"/>
      <path id="DejaVuSans-48" d="M 3597 1894 
L 3597 1613 
L 953 1613 
Q 991 1019 1311 708 
Q 1631 397 2203 397 
Q 2534 397 2845 478 
Q 3156 559 3463 722 
L 3463 178 
Q 3153 47 2828 -22 
Q 2503 -91 2169 -91 
Q 1331 -91 842 396 
Q 353 884 353 1716 
Q 353 2575 817 3079 
Q 1281 3584 2069 3584 
Q 2775 3584 3186 3129 
Q 3597 2675 3597 1894 
z
M 3022 2063 
Q 3016 2534 2758 2815 
Q 2500 3097 2075 3097 
Q 1594 3097 1305 2825 
Q 1016 2553 972 2059 
L 3022 2063 
z
" transform="scale(0.015625)"/>
      <path id="DejaVuSans-51" d="M 3513 2113 
L 3513 0 
L 2938 0 
L 2938 2094 
Q 2938 2591 2744 2837 
Q 2550 3084 2163 3084 
Q 1697 3084 1428 2787 
Q 1159 2491 1159 1978 
L 1159 0 
L 581 0 
L 581 3500 
L 1159 3500 
L 1159 2956 
Q 1366 3272 1645 3428 
Q 1925 3584 2291 3584 
Q 2894 3584 3203 3211 
Q 3513 2838 3513 2113 
z
" transform="scale(0.015625)"/>
      <path id="DejaVuSans-4c" d="M 603 3500 
L 1178 3500 
L 1178 0 
L 603 0 
L 603 3500 
z
M 603 4863 
L 1178 4863 
L 1178 4134 
L 603 4134 
L 603 4863 
z
" transform="scale(0.015625)"/>
      <path id="DejaVuSans-55" d="M 2631 2963 
Q 2534 3019 2420 3045 
Q 2306 3072 2169 3072 
Q 1681 3072 1420 2755 
Q 1159 2438 1159 1844 
L 1159 0 
L 581 0 
L 581 3500 
L 1159 3500 
L 1159 2956 
Q 1341 3275 1631 3429 
Q 1922 3584 2338 3584 
Q 2397 3584 2469 3576 
Q 2541 3569 2628 3553 
L 2631 2963 
z
" transform="scale(0.015625)"/>
      <path id="DejaVuSans-59" d="M 191 3500 
L 800 3500 
L 1894 563 
L 2988 3500 
L 3597 3500 
L 2284 0 
L 1503 0 
L 191 3500 
z
" transform="scale(0.015625)"/>
      <path id="DejaVuSans-44" d="M 2194 1759 
Q 1497 1759 1228 1600 
Q 959 1441 959 1056 
Q 959 750 1161 570 
Q 1363 391 1709 391 
Q 2188 391 2477 730 
Q 2766 1069 2766 1631 
L 2766 1759 
L 2194 1759 
z
M 3341 1997 
L 3341 0 
L 2766 0 
L 2766 531 
Q 2569 213 2275 61 
Q 1981 -91 1556 -91 
Q 1019 -91 701 211 
Q 384 513 384 1019 
Q 384 1609 779 1909 
Q 1175 2209 1959 2209 
L 2766 2209 
L 2766 2266 
Q 2766 2663 2505 2880 
Q 2244 3097 1772 3097 
Q 1472 3097 1187 3025 
Q 903 2953 641 2809 
L 641 3341 
Q 956 3463 1253 3523 
Q 1550 3584 1831 3584 
Q 2591 3584 2966 3190 
Q 3341 2797 3341 1997 
z
" transform="scale(0.015625)"/>
      <path id="DejaVuSans-4f" d="M 603 4863 
L 1178 4863 
L 1178 0 
L 603 0 
L 603 4863 
z
" transform="scale(0.015625)"/>
      <path id="DejaVuSans-56" d="M 2834 3397 
L 2834 2853 
Q 2591 2978 2328 3040 
Q 2066 3103 1784 3103 
Q 1356 3103 1142 2972 
Q 928 2841 928 2578 
Q 928 2378 1081 2264 
Q 1234 2150 1697 2047 
L 1894 2003 
Q 2506 1872 2764 1633 
Q 3022 1394 3022 966 
Q 3022 478 2636 193 
Q 2250 -91 1575 -91 
Q 1294 -91 989 -36 
Q 684 19 347 128 
L 347 722 
Q 666 556 975 473 
Q 1284 391 1588 391 
Q 1994 391 2212 530 
Q 2431 669 2431 922 
Q 2431 1156 2273 1281 
Q 2116 1406 1581 1522 
L 1381 1569 
Q 847 1681 609 1914 
Q 372 2147 372 2553 
Q 372 3047 722 3315 
Q 1072 3584 1716 3584 
Q 2034 3584 2315 3537 
Q 2597 3491 2834 3397 
z
" transform="scale(0.015625)"/>
     </defs>
     <use xlink:href="#DejaVuSans-57"/>
     <use xlink:href="#DejaVuSans-5a" transform="translate(39.203125 0)"/>
     <use xlink:href="#DejaVuSans-52" transform="translate(120.984375 0)"/>
     <use xlink:href="#DejaVuSans-3" transform="translate(182.171875 0)"/>
     <use xlink:href="#DejaVuSans-52" transform="translate(213.953125 0)"/>
     <use xlink:href="#DejaVuSans-53" transform="translate(275.140625 0)"/>
     <use xlink:href="#DejaVuSans-48" transform="translate(338.625 0)"/>
     <use xlink:href="#DejaVuSans-51" transform="translate(400.15625 0)"/>
     <use xlink:href="#DejaVuSans-3" transform="translate(463.53125 0)"/>
     <use xlink:href="#DejaVuSans-4c" transform="translate(495.3125 0)"/>
     <use xlink:href="#DejaVuSans-51" transform="translate(523.09375 0)"/>
     <use xlink:href="#DejaVuSans-57" transform="translate(586.46875 0)"/>
     <use xlink:href="#DejaVuSans-48" transform="translate(625.671875 0)"/>
     <use xlink:href="#DejaVuSans-55" transform="translate(687.203125 0)"/>
     <use xlink:href="#DejaVuSans-59" transform="translate(728.3125 0)"/>
     <use xlink:href="#DejaVuSans-44" transform="translate(787.5 0)"/>
     <use xlink:href="#DejaVuSans-4f" transform="translate(848.78125 0)"/>
     <use xlink:href="#DejaVuSans-56" transform="translate(876.5625 0)"/>
    </g>
   </g>
   <g id="text_3">
    <!-- $Q$ -->
    <g style="fill: #26384a" transform="translate(49.975386 146.285585) scale(0.15 -0.15)">
     <defs>
      <path id="DejaVuSans-Oblique-34" d="M 2309 -84 
Q 2275 -88 2237 -89 
Q 2200 -91 2125 -91 
Q 1250 -91 756 411 
Q 263 913 263 1797 
Q 263 2319 452 2844 
Q 641 3369 978 3788 
Q 1369 4269 1858 4509 
Q 2347 4750 2938 4750 
Q 3794 4750 4287 4245 
Q 4781 3741 4781 2869 
Q 4781 1928 4265 1147 
Q 3750 366 2919 44 
L 3553 -825 
L 2847 -825 
L 2309 -84 
z
M 2919 4238 
Q 2400 4238 2003 3986 
Q 1606 3734 1313 3219 
Q 1125 2891 1026 2522 
Q 928 2153 928 1778 
Q 928 1128 1239 775 
Q 1550 422 2119 422 
Q 2631 422 3032 676 
Q 3434 931 3719 1434 
Q 3909 1772 4009 2142 
Q 4109 2513 4109 2881 
Q 4109 3528 3796 3883 
Q 3484 4238 2919 4238 
z
" transform="scale(0.015625)"/>
     </defs>
     <use xlink:href="#DejaVuSans-Oblique-34" transform="translate(0 0.78125)"/>
    </g>
   </g>
   <g id="text_4">
    <!-- $R$ -->
    <g style="fill: #8a5d00" transform="translate(188.70612 143.230291) scale(0.15 -0.15)">
     <defs>
      <path id="DejaVuSans-Oblique-35" d="M 1613 4147 
L 1294 2491 
L 2106 2491 
Q 2584 2491 2879 2755 
Q 3175 3019 3175 3444 
Q 3175 3784 2976 3965 
Q 2778 4147 2406 4147 
L 1613 4147 
z
M 2772 2241 
Q 2972 2194 3105 2009 
Q 3238 1825 3413 1275 
L 3809 0 
L 3144 0 
L 2778 1197 
Q 2638 1659 2453 1815 
Q 2269 1972 1888 1972 
L 1191 1972 
L 806 0 
L 172 0 
L 1081 4666 
L 2503 4666 
Q 3150 4666 3495 4373 
Q 3841 4081 3841 3531 
Q 3841 3044 3547 2687 
Q 3253 2331 2772 2241 
z
" transform="scale(0.015625)"/>
     </defs>
     <use xlink:href="#DejaVuSans-Oblique-35" transform="translate(0 0.09375)"/>
    </g>
   </g>
   <g id="patch_7">
    <path d="M 193.95612 150.575286 
Q 193.95612 154.114423 193.95612 156.535526 
" style="fill: none; stroke: #536273; stroke-linecap: round"/>
    <path d="M 195.95612 152.535526 
L 193.95612 156.535526 
L 191.95612 152.535526 
" style="fill: none; stroke: #536273; stroke-linecap: round"/>
   </g>
   <g id="text_5">
    <!-- $V_1$ -->
    <g style="fill: #bd3e3e" transform="translate(103.145092 188.295879) scale(0.15 -0.15)">
     <defs>
      <path id="DejaVuSans-Oblique-39" d="M 1319 0 
L 500 4666 
L 1119 4666 
L 1797 653 
L 4063 4666 
L 4750 4666 
L 2053 0 
L 1319 0 
z
" transform="scale(0.015625)"/>
     </defs>
     <use xlink:href="#DejaVuSans-Oblique-39" transform="translate(0 0.09375)"/>
     <use xlink:href="#DejaVuSans-14" transform="translate(68.408203 -14.906201) scale(0.7)"/>
    </g>
   </g>
   <g id="text_6">
    <!-- $V_2$ -->
    <g style="fill: #bd3e3e" transform="translate(268.512884 188.295879) scale(0.15 -0.15)">
     <defs>
      <path id="DejaVuSans-15" d="M 1228 531 
L 3431 531 
L 3431 0 
L 469 0 
L 469 531 
Q 828 903 1448 1529 
Q 2069 2156 2228 2338 
Q 2531 2678 2651 2914 
Q 2772 3150 2772 3378 
Q 2772 3750 2511 3984 
Q 2250 4219 1831 4219 
Q 1534 4219 1204 4116 
Q 875 4013 500 3803 
L 500 4441 
Q 881 4594 1212 4672 
Q 1544 4750 1819 4750 
Q 2544 4750 2975 4387 
Q 3406 4025 3406 3419 
Q 3406 3131 3298 2873 
Q 3191 2616 2906 2266 
Q 2828 2175 2409 1742 
Q 1991 1309 1228 531 
z
" transform="scale(0.015625)"/>
     </defs>
     <use xlink:href="#DejaVuSans-Oblique-39" transform="translate(0 0.09375)"/>
     <use xlink:href="#DejaVuSans-15" transform="translate(68.408203 -14.906201) scale(0.7)"/>
    </g>
   </g>
   <g id="text_7">
    <!-- $U$ -->
    <g style="fill: #174e47" transform="translate(188.40612 188.295879) scale(0.15 -0.15)">
     <defs>
      <path id="DejaVuSans-Oblique-38" d="M 991 4666 
L 1625 4666 
L 1075 1831 
Q 1041 1641 1027 1517 
Q 1013 1394 1013 1300 
Q 1013 869 1253 645 
Q 1494 422 1959 422 
Q 2563 422 2898 753 
Q 3234 1084 3378 1831 
L 3928 4666 
L 4563 4666 
L 4000 1753 
Q 3816 809 3300 359 
Q 2784 -91 1888 -91 
Q 1188 -91 780 261 
Q 372 613 372 1216 
Q 372 1325 387 1461 
Q 403 1597 434 1753 
L 991 4666 
z
" transform="scale(0.015625)"/>
     </defs>
     <use xlink:href="#DejaVuSans-Oblique-38" transform="translate(0 0.09375)"/>
    </g>
   </g>
   <g id="text_8">
    <!-- $U=Q\cap R$ -->
    <g style="fill: #26384a" transform="translate(159.68112 252.075143) scale(0.15 -0.15)">
     <defs>
      <path id="DejaVuSans-cb3" d="M 825 1850 
Q 825 2775 1208 3240 
Q 1591 3706 2344 3706 
Q 3094 3706 3476 3240 
Q 3859 2775 3859 1850 
L 3859 0 
L 3322 0 
L 3322 1772 
Q 3322 2534 3090 2864 
Q 2859 3194 2344 3194 
Q 1825 3194 1594 2864 
Q 1363 2534 1363 1772 
L 1363 0 
L 825 0 
L 825 1850 
z
" transform="scale(0.015625)"/>
     </defs>
     <use xlink:href="#DejaVuSans-Oblique-38" transform="translate(0 0.78125)"/>
     <use xlink:href="#DejaVuSans-20" transform="translate(92.675781 0.78125)"/>
     <use xlink:href="#DejaVuSans-Oblique-34" transform="translate(195.947266 0.78125)"/>
     <use xlink:href="#DejaVuSans-cb3" transform="translate(294.140625 0.78125)"/>
     <use xlink:href="#DejaVuSans-Oblique-35" transform="translate(386.816406 0.78125)"/>
    </g>
   </g>
   <g id="text_9">
    <!-- $V_1,V_2$ cover $Q\cap R^c$ -->
    <g style="fill: #536273" transform="translate(133.31112 276.899407) scale(0.13 -0.13)">
     <defs>
      <path id="DejaVuSans-f" d="M 750 794 
L 1409 794 
L 1409 256 
L 897 -744 
L 494 -744 
L 750 256 
L 750 794 
z
" transform="scale(0.015625)"/>
      <path id="DejaVuSans-46" d="M 3122 3366 
L 3122 2828 
Q 2878 2963 2633 3030 
Q 2388 3097 2138 3097 
Q 1578 3097 1268 2742 
Q 959 2388 959 1747 
Q 959 1106 1268 751 
Q 1578 397 2138 397 
Q 2388 397 2633 464 
Q 2878 531 3122 666 
L 3122 134 
Q 2881 22 2623 -34 
Q 2366 -91 2075 -91 
Q 1284 -91 818 406 
Q 353 903 353 1747 
Q 353 2603 823 3093 
Q 1294 3584 2113 3584 
Q 2378 3584 2631 3529 
Q 2884 3475 3122 3366 
z
" transform="scale(0.015625)"/>
      <path id="DejaVuSans-Oblique-46" d="M 3431 3366 
L 3316 2797 
Q 3109 2947 2876 3022 
Q 2644 3097 2394 3097 
Q 2119 3097 1870 3000 
Q 1622 2903 1453 2725 
Q 1184 2453 1037 2087 
Q 891 1722 891 1331 
Q 891 859 1127 628 
Q 1363 397 1844 397 
Q 2081 397 2348 469 
Q 2616 541 2906 684 
L 2797 116 
Q 2547 13 2283 -39 
Q 2019 -91 1741 -91 
Q 1044 -91 669 257 
Q 294 606 294 1253 
Q 294 1797 489 2255 
Q 684 2713 1069 3078 
Q 1331 3328 1684 3456 
Q 2038 3584 2456 3584 
Q 2700 3584 2940 3529 
Q 3181 3475 3431 3366 
z
" transform="scale(0.015625)"/>
     </defs>
     <use xlink:href="#DejaVuSans-Oblique-39" transform="translate(0 0.5)"/>
     <use xlink:href="#DejaVuSans-14" transform="translate(68.408203 -14.499951) scale(0.7)"/>
     <use xlink:href="#DejaVuSans-f" transform="translate(115.678711 0.5)"/>
     <use xlink:href="#DejaVuSans-Oblique-39" transform="translate(166.948242 0.5)"/>
     <use xlink:href="#DejaVuSans-15" transform="translate(235.356445 -14.499951) scale(0.7)"/>
     <use xlink:href="#DejaVuSans-3" transform="translate(282.626953 0.5)"/>
     <use xlink:href="#DejaVuSans-46" transform="translate(314.414062 0.5)"/>
     <use xlink:href="#DejaVuSans-52" transform="translate(369.394531 0.5)"/>
     <use xlink:href="#DejaVuSans-59" transform="translate(430.576172 0.5)"/>
     <use xlink:href="#DejaVuSans-48" transform="translate(489.755859 0.5)"/>
     <use xlink:href="#DejaVuSans-55" transform="translate(551.279297 0.5)"/>
     <use xlink:href="#DejaVuSans-3" transform="translate(592.392578 0.5)"/>
     <use xlink:href="#DejaVuSans-Oblique-34" transform="translate(624.179688 0.5)"/>
     <use xlink:href="#DejaVuSans-cb3" transform="translate(722.373047 0.5)"/>
     <use xlink:href="#DejaVuSans-Oblique-35" transform="translate(815.048828 0.5)"/>
     <use xlink:href="#DejaVuSans-Oblique-46" transform="translate(891.548021 41.8) scale(0.7)"/>
    </g>
   </g>
  </g>
  <g id="axes_2">
   <g id="patch_8">
    <path d="M 407.96447 308.216171 
L 759.32329 308.216171 
Q 771.544466 308.216171 771.544466 295.994995 
L 771.544466 59.209704 
Q 771.544466 46.988527 759.32329 46.988527 
L 407.96447 46.988527 
Q 395.743294 46.988527 395.743294 59.209704 
L 395.743294 295.994995 
Q 395.743294 308.216171 407.96447 308.216171 
z
" clip-path="url(#pbac4a8aa70)" style="fill: #f8fafc; stroke: #c7d1dc; stroke-width: 1.6; stroke-linejoin: miter"/>
   </g>
   <g id="patch_9">
    <path d="M 451.884323 252.075143 
L 715.403437 252.075143 
L 715.403437 105.039115 
L 451.884323 105.039115 
z
" clip-path="url(#pbac4a8aa70)" style="fill: #ffffff; stroke: #26384a; stroke-width: 2.1; stroke-linejoin: miter"/>
   </g>
   <g id="patch_10">
    <path d="M 458.758734 245.200731 
L 539.724028 245.200731 
L 539.724028 111.913527 
L 458.758734 111.913527 
z
" clip-path="url(#pbac4a8aa70)" style="fill: #f7dede; stroke-dasharray: 9,5.4; stroke-dashoffset: 0; stroke: #bd3e3e; stroke-width: 1.8; stroke-linejoin: miter"/>
   </g>
   <g id="patch_11">
    <path d="M 627.563732 245.200731 
L 708.529026 245.200731 
L 708.529026 111.913527 
L 627.563732 111.913527 
z
" clip-path="url(#pbac4a8aa70)" style="fill: #f7dede; stroke-dasharray: 9,5.4; stroke-dashoffset: 0; stroke: #bd3e3e; stroke-width: 1.8; stroke-linejoin: miter"/>
   </g>
   <g id="patch_12">
    <path d="M 533.231528 153.159997 
L 634.438144 153.159997 
L 634.438144 111.913527 
L 533.231528 111.913527 
z
" clip-path="url(#pbac4a8aa70)" style="fill: #f7dede; stroke-dasharray: 9,5.4; stroke-dashoffset: 0; stroke: #bd3e3e; stroke-width: 1.8; stroke-linejoin: miter"/>
   </g>
   <g id="patch_13">
    <path d="M 533.231528 245.200731 
L 634.438144 245.200731 
L 634.438144 203.954261 
L 533.231528 203.954261 
z
" clip-path="url(#pbac4a8aa70)" style="fill: #f7dede; stroke-dasharray: 9,5.4; stroke-dashoffset: 0; stroke: #bd3e3e; stroke-width: 1.8; stroke-linejoin: miter"/>
   </g>
   <g id="patch_14">
    <path d="M 533.231528 207.391467 
L 634.438144 207.391467 
L 634.438144 146.285585 
L 533.231528 146.285585 
z
" clip-path="url(#pbac4a8aa70)" style="fill: #8fd0c4; stroke: #a66f00; stroke-width: 2.2; stroke-linejoin: miter"/>
   </g>
   <g id="text_10">
    <!-- $d=2$ -->
    <g style="fill: #172435" transform="translate(417.512264 78.305292) scale(0.18 -0.18)">
     <use xlink:href="#DejaVuSans-Oblique-47" transform="translate(0 0.015625)"/>
     <use xlink:href="#DejaVuSans-20" transform="translate(82.958984 0.015625)"/>
     <use xlink:href="#DejaVuSans-15" transform="translate(186.230469 0.015625)"/>
    </g>
   </g>
   <g id="text_11">
    <!-- four open rectangles -->
    <g style="fill: #536273" transform="translate(417.512264 103.129556) scale(0.12 -0.12)">
     <defs>
      <path id="DejaVuSans-49" d="M 2375 4863 
L 2375 4384 
L 1825 4384 
Q 1516 4384 1395 4259 
Q 1275 4134 1275 3809 
L 1275 3500 
L 2222 3500 
L 2222 3053 
L 1275 3053 
L 1275 0 
L 697 0 
L 697 3053 
L 147 3053 
L 147 3500 
L 697 3500 
L 697 3744 
Q 697 4328 969 4595 
Q 1241 4863 1831 4863 
L 2375 4863 
z
" transform="scale(0.015625)"/>
      <path id="DejaVuSans-58" d="M 544 1381 
L 544 3500 
L 1119 3500 
L 1119 1403 
Q 1119 906 1312 657 
Q 1506 409 1894 409 
Q 2359 409 2629 706 
Q 2900 1003 2900 1516 
L 2900 3500 
L 3475 3500 
L 3475 0 
L 2900 0 
L 2900 538 
Q 2691 219 2414 64 
Q 2138 -91 1772 -91 
Q 1169 -91 856 284 
Q 544 659 544 1381 
z
M 1991 3584 
L 1991 3584 
z
" transform="scale(0.015625)"/>
      <path id="DejaVuSans-4a" d="M 2906 1791 
Q 2906 2416 2648 2759 
Q 2391 3103 1925 3103 
Q 1463 3103 1205 2759 
Q 947 2416 947 1791 
Q 947 1169 1205 825 
Q 1463 481 1925 481 
Q 2391 481 2648 825 
Q 2906 1169 2906 1791 
z
M 3481 434 
Q 3481 -459 3084 -895 
Q 2688 -1331 1869 -1331 
Q 1566 -1331 1297 -1286 
Q 1028 -1241 775 -1147 
L 775 -588 
Q 1028 -725 1275 -790 
Q 1522 -856 1778 -856 
Q 2344 -856 2625 -561 
Q 2906 -266 2906 331 
L 2906 616 
Q 2728 306 2450 153 
Q 2172 0 1784 0 
Q 1141 0 747 490 
Q 353 981 353 1791 
Q 353 2603 747 3093 
Q 1141 3584 1784 3584 
Q 2172 3584 2450 3431 
Q 2728 3278 2906 2969 
L 2906 3500 
L 3481 3500 
L 3481 434 
z
" transform="scale(0.015625)"/>
     </defs>
     <use xlink:href="#DejaVuSans-49"/>
     <use xlink:href="#DejaVuSans-52" transform="translate(35.203125 0)"/>
     <use xlink:href="#DejaVuSans-58" transform="translate(96.390625 0)"/>
     <use xlink:href="#DejaVuSans-55" transform="translate(159.765625 0)"/>
     <use xlink:href="#DejaVuSans-3" transform="translate(200.875 0)"/>
     <use xlink:href="#DejaVuSans-52" transform="translate(232.65625 0)"/>
     <use xlink:href="#DejaVuSans-53" transform="translate(293.84375 0)"/>
     <use xlink:href="#DejaVuSans-48" transform="translate(357.328125 0)"/>
     <use xlink:href="#DejaVuSans-51" transform="translate(418.859375 0)"/>
     <use xlink:href="#DejaVuSans-3" transform="translate(482.234375 0)"/>
     <use xlink:href="#DejaVuSans-55" transform="translate(514.015625 0)"/>
     <use xlink:href="#DejaVuSans-48" transform="translate(552.921875 0)"/>
     <use xlink:href="#DejaVuSans-46" transform="translate(614.453125 0)"/>
     <use xlink:href="#DejaVuSans-57" transform="translate(669.4375 0)"/>
     <use xlink:href="#DejaVuSans-44" transform="translate(708.640625 0)"/>
     <use xlink:href="#DejaVuSans-51" transform="translate(769.921875 0)"/>
     <use xlink:href="#DejaVuSans-4a" transform="translate(833.296875 0)"/>
     <use xlink:href="#DejaVuSans-4f" transform="translate(896.78125 0)"/>
     <use xlink:href="#DejaVuSans-48" transform="translate(924.5625 0)"/>
     <use xlink:href="#DejaVuSans-56" transform="translate(986.09375 0)"/>
    </g>
   </g>
   <g id="text_12">
    <!-- $Q$ -->
    <g style="fill: #26384a" transform="translate(459.522558 93.581762) scale(0.15 -0.15)">
     <use xlink:href="#DejaVuSans-Oblique-34" transform="translate(0 0.78125)"/>
    </g>
   </g>
   <g id="text_13">
    <!-- $R$ -->
    <g style="fill: #8a5d00" transform="translate(654.297556 114.586909) scale(0.15 -0.15)">
     <use xlink:href="#DejaVuSans-Oblique-35" transform="translate(0 0.09375)"/>
    </g>
   </g>
   <g id="patch_15">
    <path d="M 649.716712 122.71638 
Q 641.121595 135.019195 633.166786 146.405491 
" style="fill: none; stroke: #536273; stroke-linecap: round"/>
    <path d="M 637.097138 144.271871 
L 633.166786 146.405491 
L 633.818101 141.981037 
" style="fill: none; stroke: #536273; stroke-linecap: round"/>
   </g>
   <g id="text_14">
    <!-- $V_1$ -->
    <g style="fill: #bd3e3e" transform="translate(490.923293 179.511908) scale(0.15 -0.15)">
     <use xlink:href="#DejaVuSans-Oblique-39" transform="translate(0 0.09375)"/>
     <use xlink:href="#DejaVuSans-14" transform="translate(68.408203 -14.906201) scale(0.7)"/>
    </g>
   </g>
   <g id="text_15">
    <!-- $V_2$ -->
    <g style="fill: #bd3e3e" transform="translate(658.964467 179.511908) scale(0.15 -0.15)">
     <use xlink:href="#DejaVuSans-Oblique-39" transform="translate(0 0.09375)"/>
     <use xlink:href="#DejaVuSans-15" transform="translate(68.408203 -14.906201) scale(0.7)"/>
    </g>
   </g>
   <g id="text_16">
    <!-- $V_3$ -->
    <g style="fill: #bd3e3e" transform="translate(574.94388 131.772938) scale(0.15 -0.15)">
     <defs>
      <path id="DejaVuSans-16" d="M 2597 2516 
Q 3050 2419 3304 2112 
Q 3559 1806 3559 1356 
Q 3559 666 3084 287 
Q 2609 -91 1734 -91 
Q 1441 -91 1130 -33 
Q 819 25 488 141 
L 488 750 
Q 750 597 1062 519 
Q 1375 441 1716 441 
Q 2309 441 2620 675 
Q 2931 909 2931 1356 
Q 2931 1769 2642 2001 
Q 2353 2234 1838 2234 
L 1294 2234 
L 1294 2753 
L 1863 2753 
Q 2328 2753 2575 2939 
Q 2822 3125 2822 3475 
Q 2822 3834 2567 4026 
Q 2313 4219 1838 4219 
Q 1578 4219 1281 4162 
Q 984 4106 628 3988 
L 628 4550 
Q 988 4650 1302 4700 
Q 1616 4750 1894 4750 
Q 2613 4750 3031 4423 
Q 3450 4097 3450 3541 
Q 3450 3153 3228 2886 
Q 3006 2619 2597 2516 
z
" transform="scale(0.015625)"/>
     </defs>
     <use xlink:href="#DejaVuSans-Oblique-39" transform="translate(0 0.09375)"/>
     <use xlink:href="#DejaVuSans-16" transform="translate(68.408203 -14.906201) scale(0.7)"/>
    </g>
   </g>
   <g id="text_17">
    <!-- $V_4$ -->
    <g style="fill: #bd3e3e" transform="translate(574.94388 226.487055) scale(0.15 -0.15)">
     <defs>
      <path id="DejaVuSans-17" d="M 2419 4116 
L 825 1625 
L 2419 1625 
L 2419 4116 
z
M 2253 4666 
L 3047 4666 
L 3047 1625 
L 3713 1625 
L 3713 1100 
L 3047 1100 
L 3047 0 
L 2419 0 
L 2419 1100 
L 313 1100 
L 313 1709 
L 2253 4666 
z
" transform="scale(0.015625)"/>
     </defs>
     <use xlink:href="#DejaVuSans-Oblique-39" transform="translate(0 0.09375)"/>
     <use xlink:href="#DejaVuSans-17" transform="translate(68.408203 -14.906201) scale(0.7)"/>
    </g>
   </g>
   <g id="text_18">
    <!-- $U$ -->
    <g style="fill: #174e47" transform="translate(578.09388 178.366173) scale(0.15 -0.15)">
     <use xlink:href="#DejaVuSans-Oblique-38" transform="translate(0 0.09375)"/>
    </g>
   </g>
   <g id="text_19">
    <!-- $U=Q\cap R$ -->
    <g style="fill: #26384a" transform="translate(549.36888 276.899407) scale(0.15 -0.15)">
     <use xlink:href="#DejaVuSans-Oblique-38" transform="translate(0 0.78125)"/>
     <use xlink:href="#DejaVuSans-20" transform="translate(92.675781 0.78125)"/>
     <use xlink:href="#DejaVuSans-Oblique-34" transform="translate(195.947266 0.78125)"/>
     <use xlink:href="#DejaVuSans-cb3" transform="translate(294.140625 0.78125)"/>
     <use xlink:href="#DejaVuSans-Oblique-35" transform="translate(386.816406 0.78125)"/>
    </g>
   </g>
  </g>
  <g id="text_20">
   <!-- Covering the part of $Q$ outside $R$ by open rectangles -->
   <g style="fill: #172435" transform="translate(124.92 16.68024) scale(0.18 -0.18)">
    <defs>
     <path id="DejaVuSans-Bold-26" d="M 4288 256 
Q 3956 84 3597 -3 
Q 3238 -91 2847 -91 
Q 1681 -91 1000 561 
Q 319 1213 319 2328 
Q 319 3447 1000 4098 
Q 1681 4750 2847 4750 
Q 3238 4750 3597 4662 
Q 3956 4575 4288 4403 
L 4288 3438 
Q 3953 3666 3628 3772 
Q 3303 3878 2944 3878 
Q 2300 3878 1931 3465 
Q 1563 3053 1563 2328 
Q 1563 1606 1931 1193 
Q 2300 781 2944 781 
Q 3303 781 3628 887 
Q 3953 994 4288 1222 
L 4288 256 
z
" transform="scale(0.015625)"/>
     <path id="DejaVuSans-Bold-52" d="M 2203 2784 
Q 1831 2784 1636 2517 
Q 1441 2250 1441 1747 
Q 1441 1244 1636 976 
Q 1831 709 2203 709 
Q 2569 709 2762 976 
Q 2956 1244 2956 1747 
Q 2956 2250 2762 2517 
Q 2569 2784 2203 2784 
z
M 2203 3584 
Q 3106 3584 3614 3096 
Q 4122 2609 4122 1747 
Q 4122 884 3614 396 
Q 3106 -91 2203 -91 
Q 1297 -91 786 396 
Q 275 884 275 1747 
Q 275 2609 786 3096 
Q 1297 3584 2203 3584 
z
" transform="scale(0.015625)"/>
     <path id="DejaVuSans-Bold-59" d="M 97 3500 
L 1216 3500 
L 2088 1081 
L 2956 3500 
L 4078 3500 
L 2700 0 
L 1472 0 
L 97 3500 
z
" transform="scale(0.015625)"/>
     <path id="DejaVuSans-Bold-48" d="M 4031 1759 
L 4031 1441 
L 1416 1441 
Q 1456 1047 1700 850 
Q 1944 653 2381 653 
Q 2734 653 3104 758 
Q 3475 863 3866 1075 
L 3866 213 
Q 3469 63 3072 -14 
Q 2675 -91 2278 -91 
Q 1328 -91 801 392 
Q 275 875 275 1747 
Q 275 2603 792 3093 
Q 1309 3584 2216 3584 
Q 3041 3584 3536 3087 
Q 4031 2591 4031 1759 
z
M 2881 2131 
Q 2881 2450 2695 2645 
Q 2509 2841 2209 2841 
Q 1884 2841 1681 2658 
Q 1478 2475 1428 2131 
L 2881 2131 
z
" transform="scale(0.015625)"/>
     <path id="DejaVuSans-Bold-55" d="M 3138 2547 
Q 2991 2616 2845 2648 
Q 2700 2681 2553 2681 
Q 2122 2681 1889 2404 
Q 1656 2128 1656 1613 
L 1656 0 
L 538 0 
L 538 3500 
L 1656 3500 
L 1656 2925 
Q 1872 3269 2151 3426 
Q 2431 3584 2822 3584 
Q 2878 3584 2943 3579 
Q 3009 3575 3134 3559 
L 3138 2547 
z
" transform="scale(0.015625)"/>
     <path id="DejaVuSans-Bold-4c" d="M 538 3500 
L 1656 3500 
L 1656 0 
L 538 0 
L 538 3500 
z
M 538 4863 
L 1656 4863 
L 1656 3950 
L 538 3950 
L 538 4863 
z
" transform="scale(0.015625)"/>
     <path id="DejaVuSans-Bold-51" d="M 4056 2131 
L 4056 0 
L 2931 0 
L 2931 347 
L 2931 1631 
Q 2931 2084 2911 2256 
Q 2891 2428 2841 2509 
Q 2775 2619 2662 2680 
Q 2550 2741 2406 2741 
Q 2056 2741 1856 2470 
Q 1656 2200 1656 1722 
L 1656 0 
L 538 0 
L 538 3500 
L 1656 3500 
L 1656 2988 
Q 1909 3294 2193 3439 
Q 2478 3584 2822 3584 
Q 3428 3584 3742 3212 
Q 4056 2841 4056 2131 
z
" transform="scale(0.015625)"/>
     <path id="DejaVuSans-Bold-4a" d="M 2919 594 
Q 2688 288 2409 144 
Q 2131 0 1766 0 
Q 1125 0 706 504 
Q 288 1009 288 1791 
Q 288 2575 706 3076 
Q 1125 3578 1766 3578 
Q 2131 3578 2409 3434 
Q 2688 3291 2919 2981 
L 2919 3500 
L 4044 3500 
L 4044 353 
Q 4044 -491 3511 -936 
Q 2978 -1381 1966 -1381 
Q 1638 -1381 1331 -1331 
Q 1025 -1281 716 -1178 
L 716 -306 
Q 1009 -475 1290 -558 
Q 1572 -641 1856 -641 
Q 2406 -641 2662 -400 
Q 2919 -159 2919 353 
L 2919 594 
z
M 2181 2772 
Q 1834 2772 1640 2515 
Q 1447 2259 1447 1791 
Q 1447 1309 1634 1061 
Q 1822 813 2181 813 
Q 2531 813 2725 1069 
Q 2919 1325 2919 1791 
Q 2919 2259 2725 2515 
Q 2531 2772 2181 2772 
z
" transform="scale(0.015625)"/>
     <path id="DejaVuSans-Bold-3" transform="scale(0.015625)"/>
     <path id="DejaVuSans-Bold-57" d="M 1759 4494 
L 1759 3500 
L 2913 3500 
L 2913 2700 
L 1759 2700 
L 1759 1216 
Q 1759 972 1856 886 
Q 1953 800 2241 800 
L 2816 800 
L 2816 0 
L 1856 0 
Q 1194 0 917 276 
Q 641 553 641 1216 
L 641 2700 
L 84 2700 
L 84 3500 
L 641 3500 
L 641 4494 
L 1759 4494 
z
" transform="scale(0.015625)"/>
     <path id="DejaVuSans-Bold-4b" d="M 4056 2131 
L 4056 0 
L 2931 0 
L 2931 347 
L 2931 1625 
Q 2931 2084 2911 2256 
Q 2891 2428 2841 2509 
Q 2775 2619 2662 2680 
Q 2550 2741 2406 2741 
Q 2056 2741 1856 2470 
Q 1656 2200 1656 1722 
L 1656 0 
L 538 0 
L 538 4863 
L 1656 4863 
L 1656 2988 
Q 1909 3294 2193 3439 
Q 2478 3584 2822 3584 
Q 3428 3584 3742 3212 
Q 4056 2841 4056 2131 
z
" transform="scale(0.015625)"/>
     <path id="DejaVuSans-Bold-53" d="M 1656 506 
L 1656 -1331 
L 538 -1331 
L 538 3500 
L 1656 3500 
L 1656 2988 
Q 1888 3294 2169 3439 
Q 2450 3584 2816 3584 
Q 3463 3584 3878 3070 
Q 4294 2556 4294 1747 
Q 4294 938 3878 423 
Q 3463 -91 2816 -91 
Q 2450 -91 2169 54 
Q 1888 200 1656 506 
z
M 2400 2772 
Q 2041 2772 1848 2508 
Q 1656 2244 1656 1747 
Q 1656 1250 1848 986 
Q 2041 722 2400 722 
Q 2759 722 2948 984 
Q 3138 1247 3138 1747 
Q 3138 2247 2948 2509 
Q 2759 2772 2400 2772 
z
" transform="scale(0.015625)"/>
     <path id="DejaVuSans-Bold-44" d="M 2106 1575 
Q 1756 1575 1579 1456 
Q 1403 1338 1403 1106 
Q 1403 894 1545 773 
Q 1688 653 1941 653 
Q 2256 653 2472 879 
Q 2688 1106 2688 1447 
L 2688 1575 
L 2106 1575 
z
M 3816 1997 
L 3816 0 
L 2688 0 
L 2688 519 
Q 2463 200 2181 54 
Q 1900 -91 1497 -91 
Q 953 -91 614 226 
Q 275 544 275 1050 
Q 275 1666 698 1953 
Q 1122 2241 2028 2241 
L 2688 2241 
L 2688 2328 
Q 2688 2594 2478 2717 
Q 2269 2841 1825 2841 
Q 1466 2841 1156 2769 
Q 847 2697 581 2553 
L 581 3406 
Q 941 3494 1303 3539 
Q 1666 3584 2028 3584 
Q 2975 3584 3395 3211 
Q 3816 2838 3816 1997 
z
" transform="scale(0.015625)"/>
     <path id="DejaVuSans-Bold-49" d="M 2841 4863 
L 2841 4128 
L 2222 4128 
Q 1984 4128 1890 4042 
Q 1797 3956 1797 3744 
L 1797 3500 
L 2753 3500 
L 2753 2700 
L 1797 2700 
L 1797 0 
L 678 0 
L 678 2700 
L 122 2700 
L 122 3500 
L 678 3500 
L 678 3744 
Q 678 4316 997 4589 
Q 1316 4863 1984 4863 
L 2841 4863 
z
" transform="scale(0.015625)"/>
     <path id="DejaVuSans-Bold-58" d="M 500 1363 
L 500 3500 
L 1625 3500 
L 1625 3150 
Q 1625 2866 1622 2436 
Q 1619 2006 1619 1863 
Q 1619 1441 1641 1255 
Q 1663 1069 1716 984 
Q 1784 875 1895 815 
Q 2006 756 2150 756 
Q 2500 756 2700 1025 
Q 2900 1294 2900 1772 
L 2900 3500 
L 4019 3500 
L 4019 0 
L 2900 0 
L 2900 506 
Q 2647 200 2364 54 
Q 2081 -91 1741 -91 
Q 1134 -91 817 281 
Q 500 653 500 1363 
z
" transform="scale(0.015625)"/>
     <path id="DejaVuSans-Bold-56" d="M 3272 3391 
L 3272 2541 
Q 2913 2691 2578 2766 
Q 2244 2841 1947 2841 
Q 1628 2841 1473 2761 
Q 1319 2681 1319 2516 
Q 1319 2381 1436 2309 
Q 1553 2238 1856 2203 
L 2053 2175 
Q 2913 2066 3209 1816 
Q 3506 1566 3506 1031 
Q 3506 472 3093 190 
Q 2681 -91 1863 -91 
Q 1516 -91 1145 -36 
Q 775 19 384 128 
L 384 978 
Q 719 816 1070 734 
Q 1422 653 1784 653 
Q 2113 653 2278 743 
Q 2444 834 2444 1013 
Q 2444 1163 2330 1236 
Q 2216 1309 1875 1350 
L 1678 1375 
Q 931 1469 631 1722 
Q 331 1975 331 2491 
Q 331 3047 712 3315 
Q 1094 3584 1881 3584 
Q 2191 3584 2531 3537 
Q 2872 3491 3272 3391 
z
" transform="scale(0.015625)"/>
     <path id="DejaVuSans-Bold-47" d="M 2919 2988 
L 2919 4863 
L 4044 4863 
L 4044 0 
L 2919 0 
L 2919 506 
Q 2688 197 2409 53 
Q 2131 -91 1766 -91 
Q 1119 -91 703 423 
Q 288 938 288 1747 
Q 288 2556 703 3070 
Q 1119 3584 1766 3584 
Q 2128 3584 2408 3439 
Q 2688 3294 2919 2988 
z
M 2181 722 
Q 2541 722 2730 984 
Q 2919 1247 2919 1747 
Q 2919 2247 2730 2509 
Q 2541 2772 2181 2772 
Q 1825 2772 1636 2509 
Q 1447 2247 1447 1747 
Q 1447 1247 1636 984 
Q 1825 722 2181 722 
z
" transform="scale(0.015625)"/>
     <path id="DejaVuSans-Bold-45" d="M 2400 722 
Q 2759 722 2948 984 
Q 3138 1247 3138 1747 
Q 3138 2247 2948 2509 
Q 2759 2772 2400 2772 
Q 2041 2772 1848 2508 
Q 1656 2244 1656 1747 
Q 1656 1250 1848 986 
Q 2041 722 2400 722 
z
M 1656 2988 
Q 1888 3294 2169 3439 
Q 2450 3584 2816 3584 
Q 3463 3584 3878 3070 
Q 4294 2556 4294 1747 
Q 4294 938 3878 423 
Q 3463 -91 2816 -91 
Q 2450 -91 2169 54 
Q 1888 200 1656 506 
L 1656 0 
L 538 0 
L 538 4863 
L 1656 4863 
L 1656 2988 
z
" transform="scale(0.015625)"/>
     <path id="DejaVuSans-Bold-5c" d="M 78 3500 
L 1197 3500 
L 2138 1125 
L 2938 3500 
L 4056 3500 
L 2584 -331 
Q 2363 -916 2067 -1148 
Q 1772 -1381 1288 -1381 
L 641 -1381 
L 641 -647 
L 991 -647 
Q 1275 -647 1404 -556 
Q 1534 -466 1606 -231 
L 1638 -134 
L 78 3500 
z
" transform="scale(0.015625)"/>
     <path id="DejaVuSans-Bold-46" d="M 3366 3391 
L 3366 2478 
Q 3138 2634 2908 2709 
Q 2678 2784 2431 2784 
Q 1963 2784 1702 2511 
Q 1441 2238 1441 1747 
Q 1441 1256 1702 982 
Q 1963 709 2431 709 
Q 2694 709 2930 787 
Q 3166 866 3366 1019 
L 3366 103 
Q 3103 6 2833 -42 
Q 2563 -91 2291 -91 
Q 1344 -91 809 395 
Q 275 881 275 1747 
Q 275 2613 809 3098 
Q 1344 3584 2291 3584 
Q 2566 3584 2833 3536 
Q 3100 3488 3366 3391 
z
" transform="scale(0.015625)"/>
     <path id="DejaVuSans-Bold-4f" d="M 538 4863 
L 1656 4863 
L 1656 0 
L 538 0 
L 538 4863 
z
" transform="scale(0.015625)"/>
    </defs>
    <use xlink:href="#DejaVuSans-Bold-26" transform="translate(0 0.015625)"/>
    <use xlink:href="#DejaVuSans-Bold-52" transform="translate(73.388672 0.015625)"/>
    <use xlink:href="#DejaVuSans-Bold-59" transform="translate(142.089844 0.015625)"/>
    <use xlink:href="#DejaVuSans-Bold-48" transform="translate(207.275391 0.015625)"/>
    <use xlink:href="#DejaVuSans-Bold-55" transform="translate(275.097656 0.015625)"/>
    <use xlink:href="#DejaVuSans-Bold-4c" transform="translate(324.414062 0.015625)"/>
    <use xlink:href="#DejaVuSans-Bold-51" transform="translate(358.691406 0.015625)"/>
    <use xlink:href="#DejaVuSans-Bold-4a" transform="translate(429.882812 0.015625)"/>
    <use xlink:href="#DejaVuSans-Bold-3" transform="translate(501.464844 0.015625)"/>
    <use xlink:href="#DejaVuSans-Bold-57" transform="translate(536.279297 0.015625)"/>
    <use xlink:href="#DejaVuSans-Bold-4b" transform="translate(584.082031 0.015625)"/>
    <use xlink:href="#DejaVuSans-Bold-48" transform="translate(655.273438 0.015625)"/>
    <use xlink:href="#DejaVuSans-Bold-3" transform="translate(723.095703 0.015625)"/>
    <use xlink:href="#DejaVuSans-Bold-53" transform="translate(757.910156 0.015625)"/>
    <use xlink:href="#DejaVuSans-Bold-44" transform="translate(829.492188 0.015625)"/>
    <use xlink:href="#DejaVuSans-Bold-55" transform="translate(896.972656 0.015625)"/>
    <use xlink:href="#DejaVuSans-Bold-57" transform="translate(946.289062 0.015625)"/>
    <use xlink:href="#DejaVuSans-Bold-3" transform="translate(994.091797 0.015625)"/>
    <use xlink:href="#DejaVuSans-Bold-52" transform="translate(1028.90625 0.015625)"/>
    <use xlink:href="#DejaVuSans-Bold-49" transform="translate(1097.607422 0.015625)"/>
    <use xlink:href="#DejaVuSans-Bold-3" transform="translate(1141.113281 0.015625)"/>
    <use xlink:href="#DejaVuSans-Oblique-34" transform="translate(1175.927734 0.015625)"/>
    <use xlink:href="#DejaVuSans-Bold-3" transform="translate(1254.638672 0.015625)"/>
    <use xlink:href="#DejaVuSans-Bold-52" transform="translate(1289.453125 0.015625)"/>
    <use xlink:href="#DejaVuSans-Bold-58" transform="translate(1358.154297 0.015625)"/>
    <use xlink:href="#DejaVuSans-Bold-57" transform="translate(1429.345703 0.015625)"/>
    <use xlink:href="#DejaVuSans-Bold-56" transform="translate(1477.148438 0.015625)"/>
    <use xlink:href="#DejaVuSans-Bold-4c" transform="translate(1536.669922 0.015625)"/>
    <use xlink:href="#DejaVuSans-Bold-47" transform="translate(1570.947266 0.015625)"/>
    <use xlink:href="#DejaVuSans-Bold-48" transform="translate(1642.529297 0.015625)"/>
    <use xlink:href="#DejaVuSans-Bold-3" transform="translate(1710.351562 0.015625)"/>
    <use xlink:href="#DejaVuSans-Oblique-35" transform="translate(1745.166016 0.015625)"/>
    <use xlink:href="#DejaVuSans-Bold-3" transform="translate(1814.648438 0.015625)"/>
    <use xlink:href="#DejaVuSans-Bold-45" transform="translate(1849.462891 0.015625)"/>
    <use xlink:href="#DejaVuSans-Bold-5c" transform="translate(1921.044922 0.015625)"/>
    <use xlink:href="#DejaVuSans-Bold-3" transform="translate(1986.230469 0.015625)"/>
    <use xlink:href="#DejaVuSans-Bold-52" transform="translate(2021.044922 0.015625)"/>
    <use xlink:href="#DejaVuSans-Bold-53" transform="translate(2089.746094 0.015625)"/>
    <use xlink:href="#DejaVuSans-Bold-48" transform="translate(2161.328125 0.015625)"/>
    <use xlink:href="#DejaVuSans-Bold-51" transform="translate(2229.150391 0.015625)"/>
    <use xlink:href="#DejaVuSans-Bold-3" transform="translate(2300.341797 0.015625)"/>
    <use xlink:href="#DejaVuSans-Bold-55" transform="translate(2335.15625 0.015625)"/>
    <use xlink:href="#DejaVuSans-Bold-48" transform="translate(2384.472656 0.015625)"/>
    <use xlink:href="#DejaVuSans-Bold-46" transform="translate(2452.294922 0.015625)"/>
    <use xlink:href="#DejaVuSans-Bold-57" transform="translate(2511.572266 0.015625)"/>
    <use xlink:href="#DejaVuSans-Bold-44" transform="translate(2559.375 0.015625)"/>
    <use xlink:href="#DejaVuSans-Bold-51" transform="translate(2626.855469 0.015625)"/>
    <use xlink:href="#DejaVuSans-Bold-4a" transform="translate(2698.046875 0.015625)"/>
    <use xlink:href="#DejaVuSans-Bold-4f" transform="translate(2769.628906 0.015625)"/>
    <use xlink:href="#DejaVuSans-Bold-48" transform="translate(2803.90625 0.015625)"/>
    <use xlink:href="#DejaVuSans-Bold-56" transform="translate(2871.728516 0.015625)"/>
   </g>
  </g>
 </g>
 <defs>
  <clipPath id="p184c8ea9ea">
   <rect x="3.00024" y="43.933233" width="381.91176" height="267.338232"/>
  </clipPath>
  <clipPath id="pbac4a8aa70">
   <rect x="392.688" y="43.933233" width="381.91176" height="267.338232"/>
  </clipPath>
 </defs>
</svg>
