<?xml version="1.0" encoding="utf-8" standalone="no"?>
<!DOCTYPE svg PUBLIC "-//W3C//DTD SVG 1.1//EN"
  "http://www.w3.org/Graphics/SVG/1.1/DTD/svg11.dtd">
<svg xmlns:xlink="http://www.w3.org/1999/xlink" width="633.6pt" height="360pt" viewBox="0 0 633.6 360" xmlns="http://www.w3.org/2000/svg" version="1.1">
 <metadata>
  <rdf:RDF xmlns:dc="http://purl.org/dc/elements/1.1/" xmlns:cc="http://creativecommons.org/ns#" xmlns:rdf="http://www.w3.org/1999/02/22-rdf-syntax-ns#">
   <cc:Work>
    <dc:type rdf:resource="http://purl.org/dc/dcmitype/StillImage"/>
    
    <dc:format>image/svg+xml</dc:format>
    <dc:creator>
     <cc:Agent>
      <dc:title>Matplotlib v3.11.2, https://matplotlib.org/</dc:title>
     </cc:Agent>
    </dc:creator>
   </cc:Work>
  </rdf:RDF>
 </metadata>
 <defs>
  <style type="text/css">*{stroke-linejoin: round; stroke-linecap: butt}</style>
 </defs>
 <g id="figure_1">
  <g id="patch_1">
   <path d="M 0 360 
L 633.6 360 
L 633.6 0 
L 0 0 
z
" style="fill: #ffffff"/>
  </g>
  <g id="axes_1">
   <g id="patch_2">
    <path d="M 56.610353 332.809793 
L 576.989647 332.809793 
Q 593.509625 332.809793 593.509625 316.289815 
L 593.509625 55.510169 
Q 593.509625 38.990191 576.989647 38.990191 
L 56.610353 38.990191 
Q 40.090375 38.990191 40.090375 55.510169 
L 40.090375 316.289815 
Q 40.090375 332.809793 56.610353 332.809793 
z
" clip-path="url(#p05b2686929)" style="fill: #ffffff; stroke: #26384a; stroke-width: 2.1; stroke-linejoin: miter"/>
   </g>
   <g id="patch_3">
    <path d="M 44.810369 185.899992 
L 588.789631 185.899992 
L 588.789631 43.710185 
L 44.810369 43.710185 
z
" clip-path="url(#p099e6c0ae6)" style="fill: #dceafb"/>
   </g>
   <g id="patch_4">
    <path d="M 44.810369 328.089799 
L 588.789631 328.089799 
L 588.789631 185.899992 
L 44.810369 185.899992 
z
" clip-path="url(#pc94d16cd29)" style="fill: #f7dede"/>
   </g>
   <g id="patch_5">
    <path d="M 44.810369 328.089799 
L 316.8 328.089799 
L 316.8 43.710185 
L 44.810369 43.710185 
z
" clip-path="url(#p5401d20a55)" style="fill: #e1f0df"/>
   </g>
   <g id="patch_6">
    <path d="M 316.8 328.089799 
L 588.789631 328.089799 
L 588.789631 43.710185 
L 316.8 43.710185 
z
" clip-path="url(#p0db3eb7ce4)" style="fill: #fff2c9"/>
   </g>
   <g id="patch_7">
    <path d="M 213.55014 185.899992 
L 316.8 185.899992 
L 316.8 82.650132 
L 213.55014 82.650132 
z
" clip-path="url(#pbbf3ebadcc)" style="fill: #5fb6a6; opacity: 0.8"/>
   </g>
   <g id="patch_8">
    <path d="M 316.8 185.899992 
L 420.04986 185.899992 
L 420.04986 82.650132 
L 316.8 82.650132 
z
" clip-path="url(#pbbf3ebadcc)" style="fill: #6ca8dc; opacity: 0.8"/>
   </g>
   <g id="patch_9">
    <path d="M 213.55014 289.149852 
L 316.8 289.149852 
L 316.8 185.899992 
L 213.55014 185.899992 
z
" clip-path="url(#pbbf3ebadcc)" style="fill: #d69b69; opacity: 0.8"/>
   </g>
   <g id="patch_10">
    <path d="M 316.8 289.149852 
L 420.04986 289.149852 
L 420.04986 185.899992 
L 316.8 185.899992 
z
" clip-path="url(#pbbf3ebadcc)" style="fill: #c98aa2; opacity: 0.8"/>
   </g>
   <g id="patch_11">
    <path d="M 316.8 289.149852 
C 344.182183 289.149852 370.446549 278.270795 389.808676 258.908668 
C 409.170803 239.546541 420.04986 213.282175 420.04986 185.899992 
C 420.04986 158.517809 409.170803 132.253443 389.808676 112.891316 
C 370.446549 93.529189 344.182183 82.650132 316.8 82.650132 
C 289.417817 82.650132 263.153451 93.529189 243.791324 112.891316 
C 224.429197 132.253443 213.55014 158.517809 213.55014 185.899992 
C 213.55014 213.282175 224.429197 239.546541 243.791324 258.908668 
C 263.153451 278.270795 289.417817 289.149852 316.8 289.149852 
L 316.8 289.149852 
z
" clip-path="url(#p05b2686929)" style="fill: none; stroke: #6b4c00; stroke-width: 2.7; stroke-linejoin: miter"/>
   </g>
   <g id="line2d_1">
    <path d="M 42.450372 185.899992 
L 591.149628 185.899992 
" clip-path="url(#p05b2686929)" style="fill: none; stroke: #26384a; stroke-width: 1.8; stroke-linecap: square"/>
   </g>
   <g id="line2d_2">
    <path d="M 316.8 330.449796 
L 316.8 41.350188 
" clip-path="url(#p05b2686929)" style="fill: none; stroke: #26384a; stroke-width: 1.8; stroke-linecap: square"/>
   </g>
   <g id="text_1">
    <!-- $X$ -->
    <g style="fill: #172435" transform="translate(60.150348 64.950156) scale(0.18 -0.18)">
     <defs>
      <path id="DejaVuSans-Oblique-3b" d="M 878 4666 
L 1516 4666 
L 2316 2981 
L 3763 4666 
L 4500 4666 
L 2578 2438 
L 3738 0 
L 3103 0 
L 2163 1966 
L 459 0 
L -275 0 
L 1906 2509 
L 878 4666 
z
" transform="scale(0.015625)"/>
     </defs>
     <use xlink:href="#DejaVuSans-Oblique-3b" transform="translate(0 0.09375)"/>
    </g>
   </g>
   <g id="text_2">
    <!-- $A$ -->
    <g style="fill: #14599e" transform="translate(464.2998 82.650132) scale(0.2 -0.2)">
     <defs>
      <path id="DejaVuSans-Oblique-24" d="M 2356 4666 
L 3072 4666 
L 3938 0 
L 3278 0 
L 3084 1197 
L 984 1197 
L 325 0 
L -341 0 
L 2356 4666 
z
M 2584 4044 
L 1275 1722 
L 2988 1722 
L 2584 4044 
z
" transform="scale(0.015625)"/>
     </defs>
     <use xlink:href="#DejaVuSans-Oblique-24" transform="translate(0 0.09375)"/>
    </g>
   </g>
   <g id="text_3">
    <!-- $A^c$ -->
    <g style="fill: #a82c2c" transform="translate(464.2998 306.849828) scale(0.2 -0.2)">
     <defs>
      <path id="DejaVuSans-Oblique-46" d="M 3431 3366 
L 3316 2797 
Q 3109 2947 2876 3022 
Q 2644 3097 2394 3097 
Q 2119 3097 1870 3000 
Q 1622 2903 1453 2725 
Q 1184 2453 1037 2087 
Q 891 1722 891 1331 
Q 891 859 1127 628 
Q 1363 397 1844 397 
Q 2081 397 2348 469 
Q 2616 541 2906 684 
L 2797 116 
Q 2547 13 2283 -39 
Q 2019 -91 1741 -91 
Q 1044 -91 669 257 
Q 294 606 294 1253 
Q 294 1797 489 2255 
Q 684 2713 1069 3078 
Q 1331 3328 1684 3456 
Q 2038 3584 2456 3584 
Q 2700 3584 2940 3529 
Q 3181 3475 3431 3366 
z
" transform="scale(0.015625)"/>
     </defs>
     <use xlink:href="#DejaVuSans-Oblique-24" transform="translate(0 0.5)"/>
     <use xlink:href="#DejaVuSans-Oblique-46" transform="translate(75.424974 41.8) scale(0.7)"/>
    </g>
   </g>
   <g id="text_4">
    <!-- $B$ -->
    <g style="fill: #39783b" transform="translate(101.450292 163.480022) scale(0.2 -0.2)">
     <defs>
      <path id="DejaVuSans-Oblique-25" d="M 1081 4666 
L 2694 4666 
Q 3350 4666 3675 4422 
Q 4000 4178 4000 3688 
Q 4000 3238 3720 2911 
Q 3441 2584 2988 2516 
Q 3375 2428 3569 2181 
Q 3763 1934 3763 1522 
Q 3763 819 3242 409 
Q 2722 0 1819 0 
L 172 0 
L 1081 4666 
z
M 1234 2228 
L 903 519 
L 1919 519 
Q 2491 519 2800 781 
Q 3109 1044 3109 1522 
Q 3109 1891 2904 2059 
Q 2700 2228 2247 2228 
L 1234 2228 
z
M 1606 4147 
L 1331 2741 
L 2272 2741 
Q 2775 2741 3058 2959 
Q 3341 3178 3341 3566 
Q 3341 3869 3150 4008 
Q 2959 4147 2541 4147 
L 1606 4147 
z
" transform="scale(0.015625)"/>
     </defs>
     <use xlink:href="#DejaVuSans-Oblique-25" transform="translate(0 0.09375)"/>
    </g>
   </g>
   <g id="text_5">
    <!-- $B^c$ -->
    <g style="fill: #9b7300" transform="translate(522.119722 163.480022) scale(0.2 -0.2)">
     <use xlink:href="#DejaVuSans-Oblique-25" transform="translate(0 0.5)"/>
     <use xlink:href="#DejaVuSans-Oblique-46" transform="translate(75.620286 41.8) scale(0.7)"/>
    </g>
   </g>
   <g id="text_6">
    <!-- $E$ -->
    <g style="fill: #6b4c00" transform="translate(310.4 59.050164) scale(0.2 -0.2)">
     <defs>
      <path id="DejaVuSans-Oblique-28" d="M 1081 4666 
L 4031 4666 
L 3928 4134 
L 1606 4134 
L 1338 2753 
L 3566 2753 
L 3463 2222 
L 1234 2222 
L 909 531 
L 3284 531 
L 3181 0 
L 172 0 
L 1081 4666 
z
" transform="scale(0.015625)"/>
     </defs>
     <use xlink:href="#DejaVuSans-Oblique-28" transform="translate(0 0.09375)"/>
    </g>
   </g>
   <g id="text_7">
    <!-- $E\cap A\cap B$ -->
    <g style="fill: #172435" transform="translate(241.50507 156.307458) scale(0.11 -0.11)">
     <defs>
      <path id="DejaVuSans-cb3" d="M 825 1850 
Q 825 2775 1208 3240 
Q 1591 3706 2344 3706 
Q 3094 3706 3476 3240 
Q 3859 2775 3859 1850 
L 3859 0 
L 3322 0 
L 3322 1772 
Q 3322 2534 3090 2864 
Q 2859 3194 2344 3194 
Q 1825 3194 1594 2864 
Q 1363 2534 1363 1772 
L 1363 0 
L 825 0 
L 825 1850 
z
" transform="scale(0.015625)"/>
     </defs>
     <use xlink:href="#DejaVuSans-Oblique-28" transform="translate(0 0.09375)"/>
     <use xlink:href="#DejaVuSans-cb3" transform="translate(82.666016 0.09375)"/>
     <use xlink:href="#DejaVuSans-Oblique-24" transform="translate(175.341797 0.09375)"/>
     <use xlink:href="#DejaVuSans-cb3" transform="translate(263.232422 0.09375)"/>
     <use xlink:href="#DejaVuSans-Oblique-25" transform="translate(355.908203 0.09375)"/>
    </g>
   </g>
   <g id="text_8">
    <!-- $E\cap A\cap B^c$ -->
    <g style="fill: #172435" transform="translate(342.70493 156.583747) scale(0.11 -0.11)">
     <use xlink:href="#DejaVuSans-Oblique-28" transform="translate(0 0.5)"/>
     <use xlink:href="#DejaVuSans-cb3" transform="translate(82.666016 0.5)"/>
     <use xlink:href="#DejaVuSans-Oblique-24" transform="translate(175.341797 0.5)"/>
     <use xlink:href="#DejaVuSans-cb3" transform="translate(263.232422 0.5)"/>
     <use xlink:href="#DejaVuSans-Oblique-25" transform="translate(355.908203 0.5)"/>
     <use xlink:href="#DejaVuSans-Oblique-46" transform="translate(431.52849 41.8) scale(0.7)"/>
    </g>
   </g>
   <g id="text_9">
    <!-- $E\cap A^c\cap B$ -->
    <g style="fill: #172435" transform="translate(238.86507 223.253657) scale(0.11 -0.11)">
     <use xlink:href="#DejaVuSans-Oblique-28" transform="translate(0 0.5)"/>
     <use xlink:href="#DejaVuSans-cb3" transform="translate(82.666016 0.5)"/>
     <use xlink:href="#DejaVuSans-Oblique-24" transform="translate(175.341797 0.5)"/>
     <use xlink:href="#DejaVuSans-Oblique-46" transform="translate(250.766771 41.8) scale(0.7)"/>
     <use xlink:href="#DejaVuSans-cb3" transform="translate(311.469896 0.5)"/>
     <use xlink:href="#DejaVuSans-Oblique-25" transform="translate(404.145677 0.5)"/>
    </g>
   </g>
   <g id="text_10">
    <!-- $E\cap A^c\cap B^c$ -->
    <g style="fill: #172435" transform="translate(340.06493 223.253657) scale(0.11 -0.11)">
     <use xlink:href="#DejaVuSans-Oblique-28" transform="translate(0 0.5)"/>
     <use xlink:href="#DejaVuSans-cb3" transform="translate(82.666016 0.5)"/>
     <use xlink:href="#DejaVuSans-Oblique-24" transform="translate(175.341797 0.5)"/>
     <use xlink:href="#DejaVuSans-Oblique-46" transform="translate(250.766771 41.8) scale(0.7)"/>
     <use xlink:href="#DejaVuSans-cb3" transform="translate(311.469896 0.5)"/>
     <use xlink:href="#DejaVuSans-Oblique-25" transform="translate(404.145677 0.5)"/>
     <use xlink:href="#DejaVuSans-Oblique-46" transform="translate(479.765964 41.8) scale(0.7)"/>
    </g>
   </g>
  </g>
 </g>
 <defs>
  <clipPath id="p05b2686929">
   <rect x="21.8004" y="3.00024" width="589.9992" height="353.99952"/>
  </clipPath>
  <clipPath id="p099e6c0ae6">
   <path d="M 56.610353 332.809793 
L 576.989647 332.809793 
Q 593.509625 332.809793 593.509625 316.289815 
L 593.509625 55.510169 
Q 593.509625 38.990191 576.989647 38.990191 
L 56.610353 38.990191 
Q 40.090375 38.990191 40.090375 55.510169 
L 40.090375 316.289815 
Q 40.090375 332.809793 56.610353 332.809793 
z
"/>
  </clipPath>
  <clipPath id="pc94d16cd29">
   <path d="M 56.610353 332.809793 
L 576.989647 332.809793 
Q 593.509625 332.809793 593.509625 316.289815 
L 593.509625 55.510169 
Q 593.509625 38.990191 576.989647 38.990191 
L 56.610353 38.990191 
Q 40.090375 38.990191 40.090375 55.510169 
L 40.090375 316.289815 
Q 40.090375 332.809793 56.610353 332.809793 
z
"/>
  </clipPath>
  <clipPath id="p5401d20a55">
   <path d="M 56.610353 332.809793 
L 576.989647 332.809793 
Q 593.509625 332.809793 593.509625 316.289815 
L 593.509625 55.510169 
Q 593.509625 38.990191 576.989647 38.990191 
L 56.610353 38.990191 
Q 40.090375 38.990191 40.090375 55.510169 
L 40.090375 316.289815 
Q 40.090375 332.809793 56.610353 332.809793 
z
"/>
  </clipPath>
  <clipPath id="p0db3eb7ce4">
   <path d="M 56.610353 332.809793 
L 576.989647 332.809793 
Q 593.509625 332.809793 593.509625 316.289815 
L 593.509625 55.510169 
Q 593.509625 38.990191 576.989647 38.990191 
L 56.610353 38.990191 
Q 40.090375 38.990191 40.090375 55.510169 
L 40.090375 316.289815 
Q 40.090375 332.809793 56.610353 332.809793 
z
"/>
  </clipPath>
  <clipPath id="pbbf3ebadcc">
   <path d="M 5 358.85 
C 5.464105 358.85 5.909265 358.665609 6.237437 358.337437 
C 6.565609 358.009265 6.75 357.564105 6.75 357.1 
C 6.75 356.635895 6.565609 356.190735 6.237437 355.862563 
C 5.909265 355.534391 5.464105 355.35 5 355.35 
C 4.535895 355.35 4.090735 355.534391 3.762563 355.862563 
C 3.434391 356.190735 3.25 356.635895 3.25 357.1 
C 3.25 357.564105 3.434391 358.009265 3.762563 358.337437 
C 4.090735 358.665609 4.535895 358.85 5 358.85 
z
"/>
  </clipPath>
 </defs>
</svg>
